<svg width="84" height="39" viewBox="0 0 84 39" fill="none" xmlns="http://www.w3.org/2000/svg">
<path d="M22.6177 16.8924C20.1847 16.8924 18.9527 15.1744 18.9527 12.7984C18.9527 10.3934 20.1837 8.6464 22.6177 8.6464C25.0227 8.6464 26.2827 10.3934 26.2827 12.7984C26.2827 15.1744 25.0227 16.8924 22.6177 16.8924ZM22.6177 4.35241C21.5174 4.35057 20.4279 4.56927 19.4135 4.99561C18.3992 5.42194 17.4806 6.04727 16.712 6.83461C15.9434 7.62196 15.3404 8.55536 14.9386 9.57969C14.5368 10.604 14.3444 11.6985 14.3727 12.7984C14.3191 13.902 14.4947 15.0047 14.8882 16.0372C15.2817 17.0696 15.8846 18.0095 16.6591 18.7975C17.4336 19.5855 18.3628 20.2046 19.3883 20.6159C20.4138 21.0273 21.5133 21.2218 22.6177 21.1874C23.7137 21.1912 24.7995 20.9758 25.8111 20.5538C26.8227 20.1318 27.7396 19.5117 28.5079 18.73C29.2763 17.9483 29.8805 17.0209 30.2851 16.0022C30.6897 14.9835 30.8864 13.8942 30.8637 12.7984C30.9181 11.6918 30.7436 10.5859 30.3511 9.54987C29.9586 8.51381 29.3566 7.56989 28.5826 6.77715C27.8086 5.98441 26.8794 5.35989 25.853 4.94268C24.8267 4.52546 23.7252 4.32452 22.6177 4.35241Z" fill="#9ACA3C"/>
<path d="M10.594 0.28662C4.72502 0.28662 0 4.40962 0 11.1376C0 18.0376 4.639 21.3016 9.707 21.3016C11.5781 21.3437 13.4326 20.9413 15.118 20.1276C15.605 19.8416 15.691 19.6126 15.347 19.1536C14.7855 18.3896 14.2967 17.5747 13.887 16.7196C13.76 16.4196 13.648 16.2036 13.377 16.2036C13.2562 16.2092 13.1376 16.2385 13.028 16.2896C12.2152 16.6485 11.3394 16.8433 10.451 16.8626C7.21502 16.8626 4.83901 15.2306 4.75101 11.1366C4.66501 6.95661 7.01301 4.78062 10.506 4.78062C11.6953 4.721 12.8842 4.90615 13.999 5.32461C14.0988 5.36559 14.2062 5.38502 14.314 5.38162C14.543 5.38162 14.714 5.18161 14.858 4.98161C15.2609 4.4226 15.4809 3.75264 15.488 3.06361C15.498 2.67048 15.4087 2.28117 15.2285 1.93162C15.0484 1.58208 14.783 1.28356 14.457 1.06362C13.2644 0.455061 11.9269 0.187565 10.592 0.290618" fill="#9ACA3C"/>
<path d="M81.4158 0.000515481C80.6998 0.000515481 78.8838 0.229518 78.8838 2.14852V20.2145C78.8838 20.7585 78.9658 21.0145 79.4518 21.0145H82.6868C83.1738 21.0145 83.3618 20.7625 83.3618 20.2145V1.00251C83.387 0.860888 83.3622 0.7149 83.2916 0.589566C83.221 0.464231 83.109 0.367353 82.9748 0.315518C82.4833 0.0990402 81.9508 -0.00842555 81.4138 0.000515481" fill="#9ACA3C"/>
<path d="M39.5203 4.35257C34.9683 4.35257 32.0264 7.12956 32.0264 11.4526V20.2136C32.0264 20.7576 32.2113 21.0136 32.6973 21.0136H35.9033C36.3903 21.0136 36.5034 20.7616 36.5034 20.2136V12.3966C36.5034 11.1966 36.5973 8.76057 39.5463 8.76057C42.4953 8.76057 42.3604 11.1366 42.3604 12.3396V20.2136C42.3604 20.7576 42.5153 21.0136 43.0023 21.0136H46.2084C46.6954 21.0136 46.8384 20.7616 46.8384 20.2136V11.3376C46.8384 7.01357 44.2123 4.35156 39.5173 4.35156" fill="#9ACA3C"/>
<path d="M75.2798 4.35254C74.5928 4.35254 72.6798 4.58154 72.6798 6.49954V13.2845C72.6798 14.4845 72.9148 16.9205 69.9658 16.9205C67.0168 16.9205 67.1658 14.5445 67.1658 13.3415V5.35954C67.1748 5.2087 67.1331 5.05916 67.0474 4.93469C66.9617 4.81023 66.8369 4.71795 66.6928 4.67253C66.1675 4.45285 65.602 4.34556 65.0328 4.35754C64.3448 4.35754 62.3418 4.58653 62.3418 6.50453V14.3785C62.3418 18.7015 65.0968 21.3355 69.7068 21.3355C74.2588 21.3355 77.1578 18.4725 77.1578 14.1485V5.35954C77.1578 4.95954 77.0758 4.81553 76.7898 4.67253C76.3161 4.45336 75.7986 4.34562 75.2768 4.35754" fill="#9ACA3C"/>
<path d="M54.8004 4.18042C52.7104 4.18042 47.9004 4.75341 47.9004 9.44841C47.9004 13.0554 50.1004 13.9484 53.3404 14.4594L54.9404 14.7174C56.5404 14.9754 57.1164 15.1814 57.1164 16.0694C57.1164 17.2174 55.3684 17.2214 54.4164 17.2214H54.2853C52.6404 17.1729 51.015 16.8515 49.4753 16.2704C49.4 16.2509 49.3222 16.2425 49.2444 16.2454C49.1277 16.2452 49.0148 16.2867 48.926 16.3624C48.8373 16.4382 48.7785 16.5432 48.7604 16.6584L47.9874 19.2384C47.9206 19.3755 47.9102 19.5334 47.9584 19.6781C48.0067 19.8228 48.1097 19.9428 48.2454 20.0124C50.2141 20.8313 52.3261 21.2501 54.4584 21.2444C59.4114 21.2444 61.5013 18.6684 61.5013 15.8044C61.5013 12.4544 59.6114 11.4244 55.6014 10.7944L53.9413 10.5364C52.5413 10.3074 52.0514 10.1074 52.0514 9.24841C52.0514 8.21741 53.4254 8.13142 55.1434 8.13142C56.1545 8.14275 57.1618 8.25801 58.1494 8.47542C59.0084 8.64742 59.3494 8.84741 59.5804 8.84741C59.8384 8.84741 60.0104 8.61842 60.1244 8.44742C60.3151 8.21282 60.4576 7.9428 60.5436 7.65292C60.6296 7.36304 60.6574 7.05902 60.6254 6.75835C60.5935 6.45768 60.5023 6.1663 60.3573 5.90099C60.2123 5.63567 60.0162 5.40166 59.7803 5.21242C58.6933 4.38242 56.2593 4.18141 54.7983 4.18141" fill="#9ACA3C"/>
<path d="M12.3873 30.1149C12.3795 30.0289 12.3899 29.9422 12.418 29.8605C12.4461 29.7788 12.4912 29.7039 12.5503 29.6409C12.6561 29.5437 12.7871 29.4782 12.9283 29.4519C13.1459 29.4135 13.3656 29.3878 13.5863 29.3749C13.8889 29.3543 14.3259 29.3439 14.8973 29.3439C15.4125 29.3321 15.9271 29.3868 16.4283 29.5069C16.7687 29.5872 17.0897 29.7348 17.3723 29.9409C17.5845 30.1007 17.7485 30.3159 17.8463 30.5629C17.9352 30.7995 17.9802 31.0502 17.9793 31.3029C17.9827 31.4988 17.9533 31.6938 17.8923 31.8799C17.8411 32.0337 17.7691 32.1797 17.6783 32.3139C17.5975 32.4317 17.4994 32.5365 17.3873 32.6249C17.2898 32.7033 17.1838 32.7704 17.0713 32.8249C17.4072 32.9332 17.7013 33.1428 17.9133 33.4249C18.136 33.7346 18.249 34.1098 18.2343 34.4909C18.2361 34.7652 18.1911 35.0378 18.1013 35.2969C18.0043 35.56 17.8322 35.7888 17.6063 35.9549C17.3035 36.1694 16.9597 36.3189 16.5963 36.3939C16.0483 36.511 15.4885 36.564 14.9283 36.5519C14.6016 36.5519 14.2919 36.5469 13.9993 36.5369C13.7066 36.5269 13.4483 36.5166 13.2243 36.5059C12.9996 36.4959 12.8143 36.4839 12.6683 36.4699C12.5223 36.4559 12.4286 36.4493 12.3873 36.4499V30.1149ZM15.4693 32.3589C15.672 32.3632 15.8742 32.3372 16.0693 32.2819C16.2144 32.242 16.3503 32.1741 16.4693 32.0819C16.5683 32.0009 16.6439 31.8949 16.6883 31.7749C16.733 31.6522 16.7554 31.5225 16.7543 31.3919C16.7546 31.2539 16.7249 31.1174 16.6673 30.9919C16.6031 30.8592 16.5021 30.7478 16.3763 30.6709C16.2095 30.5704 16.0264 30.4996 15.8353 30.4619C15.5646 30.403 15.2883 30.3738 15.0113 30.3749C14.6166 30.3749 14.2936 30.3853 14.0423 30.4059C13.7909 30.4266 13.6346 30.4436 13.5733 30.4569V32.3569L15.4693 32.3589ZM13.5713 35.4309C13.6326 35.4443 13.7839 35.4613 14.0253 35.4819C14.2666 35.5026 14.6119 35.5129 15.0613 35.5129C15.3653 35.5174 15.6691 35.4953 15.9693 35.4469C16.1796 35.4167 16.3829 35.3489 16.5693 35.2469C16.7091 35.1692 16.8228 35.052 16.8963 34.9099C16.9653 34.7616 16.9995 34.5995 16.9963 34.4359C16.9979 34.2998 16.9755 34.1644 16.9303 34.0359C16.8846 33.9114 16.8074 33.8008 16.7063 33.7149C16.5835 33.614 16.4412 33.5394 16.2883 33.4959C16.0776 33.4364 15.8592 33.4088 15.6403 33.4139H13.5713V35.4309ZM23.4483 36.0739C23.3936 36.1079 23.3086 36.1556 23.1933 36.2169C23.0541 36.2875 22.9088 36.3454 22.7593 36.3899C22.5625 36.4501 22.3621 36.4978 22.1593 36.5329C21.9116 36.5753 21.6606 36.5957 21.4093 36.5939C21.046 36.5973 20.6849 36.5388 20.3413 36.4209C20.0201 36.3104 19.725 36.1351 19.4743 35.9059C19.2215 35.6717 19.0214 35.3864 18.8873 35.0689C18.7386 34.7083 18.6657 34.3209 18.6733 33.9309C18.6684 33.5484 18.7395 33.1688 18.8823 32.8139C19.0147 32.488 19.2128 32.1929 19.4643 31.9469C19.7161 31.7028 20.0143 31.5117 20.3413 31.3849C20.6944 31.249 21.07 31.1812 21.4483 31.1849C21.7667 31.1796 22.0838 31.2262 22.3873 31.3229C22.6372 31.4027 22.8707 31.527 23.0763 31.6899C23.2562 31.8341 23.4008 32.0174 23.4993 32.2259C23.5947 32.4303 23.6435 32.6534 23.6423 32.8789C23.6461 33.1022 23.6014 33.3236 23.5113 33.5279C23.4083 33.7376 23.245 33.9118 23.0423 34.0279C22.7608 34.1887 22.4536 34.2993 22.1343 34.3549C21.6557 34.4425 21.1697 34.4827 20.6833 34.4749C20.5499 34.4749 20.4223 34.4733 20.3003 34.4699C20.1783 34.4666 20.0506 34.4616 19.9173 34.4549C19.9413 34.6218 19.9983 34.7822 20.085 34.9268C20.1717 35.0714 20.2864 35.1972 20.4223 35.2969C20.7796 35.5326 21.2041 35.6453 21.6313 35.6179C21.7955 35.6189 21.9595 35.6052 22.1213 35.5769C22.2569 35.5535 22.3906 35.5201 22.5213 35.4769C22.6255 35.4422 22.7277 35.4014 22.8273 35.3549L23.0163 35.2629L23.4483 36.0739ZM19.8663 33.6549C20.0229 33.6616 20.1726 33.6649 20.3153 33.6649H20.7443C21.0485 33.6709 21.3527 33.6472 21.6523 33.5939C21.8411 33.5611 22.0236 33.499 22.1933 33.4099C22.3035 33.3546 22.3929 33.2651 22.4483 33.1549C22.4892 33.0602 22.51 32.9581 22.5093 32.8549C22.5152 32.7388 22.4894 32.6233 22.4346 32.5207C22.3798 32.4182 22.2981 32.3325 22.1983 32.2729C21.9651 32.1369 21.6981 32.0697 21.4283 32.0789C21.2002 32.0742 20.9739 32.1196 20.7653 32.2119C20.5825 32.2945 20.419 32.4144 20.2853 32.5639C20.1551 32.7124 20.0534 32.8836 19.9853 33.0689C19.9137 33.2564 19.8735 33.4544 19.8663 33.6549ZM24.1113 33.1549C24.1046 32.86 24.1637 32.5672 24.2843 32.2979C24.394 32.0607 24.556 31.8514 24.7583 31.6859C24.9686 31.5177 25.2093 31.3914 25.4673 31.3139C25.7551 31.2264 26.0545 31.1833 26.3553 31.1859C26.7457 31.1793 27.1327 31.2596 27.4883 31.4209C27.8161 31.5706 28.0938 31.8116 28.2883 32.1149C28.4795 31.814 28.752 31.5734 29.0743 31.4209C29.4225 31.2597 29.8026 31.1794 30.1863 31.1859C30.4833 31.1835 30.7791 31.2246 31.0643 31.3079C31.3199 31.3821 31.5579 31.5069 31.7643 31.6749C31.9641 31.8416 32.1243 32.0507 32.2333 32.2869C32.3538 32.5562 32.4129 32.849 32.4063 33.1439V36.4499H31.2443V33.5429C31.2621 33.3628 31.2432 33.1808 31.1889 33.0081C31.1346 32.8354 31.046 32.6755 30.9283 32.5379C30.6934 32.3288 30.3853 32.2209 30.0713 32.2379C29.9109 32.2336 29.7512 32.2612 29.6015 32.319C29.4518 32.3769 29.3151 32.4639 29.1993 32.5749C29.0698 32.7236 28.9718 32.8971 28.9113 33.0848C28.8508 33.2725 28.829 33.4706 28.8473 33.6669V36.4529H27.6833V33.6659C27.7013 33.4696 27.6793 33.2718 27.6186 33.0842C27.5579 32.8967 27.4599 32.7234 27.3303 32.5749C27.2145 32.4639 27.0777 32.3769 26.9281 32.319C26.7784 32.2612 26.6187 32.2336 26.4583 32.2379C26.1435 32.2234 25.8357 32.3334 25.6013 32.5439C25.4806 32.681 25.3893 32.8413 25.3331 33.015C25.2768 33.1887 25.2568 33.3722 25.2743 33.5539V36.4539H24.1113V33.1549ZM35.2333 34.1239C35.2241 33.6953 35.2919 33.2686 35.4333 32.8639C35.5563 32.5209 35.7509 32.2079 36.0043 31.9459C36.2549 31.6941 36.5582 31.5008 36.8923 31.3799C37.2619 31.2467 37.6524 31.181 38.0453 31.1859C38.412 31.1807 38.7761 31.2487 39.1163 31.3859C39.4339 31.516 39.7232 31.7066 39.9683 31.9469C40.2136 32.1909 40.4062 32.4826 40.5343 32.8039C40.671 33.1481 40.7389 33.5157 40.7343 33.8859C40.7382 34.2578 40.6703 34.6268 40.5343 34.9729C40.4094 35.2909 40.222 35.5806 39.9833 35.8249C39.7475 36.0636 39.4663 36.2527 39.1563 36.3809C38.8278 36.5163 38.4755 36.5843 38.1203 36.5809C37.7638 36.5881 37.4106 36.5113 37.0893 36.3569C36.8179 36.2276 36.5787 36.0394 36.3893 35.8059V38.4919H35.2333V34.1239ZM37.9683 35.5529C38.1876 35.5553 38.4049 35.5117 38.6063 35.4249C38.7953 35.3432 38.9656 35.2233 39.1063 35.0729C39.2479 34.9193 39.3571 34.7387 39.4273 34.5419C39.5035 34.3293 39.5414 34.1048 39.5393 33.8789C39.5412 33.6579 39.5032 33.4384 39.4273 33.2309C39.3569 33.0375 39.2477 32.8605 39.1063 32.7109C38.9645 32.563 38.7945 32.445 38.6063 32.3639C38.4049 32.2772 38.1876 32.2336 37.9683 32.2359C37.7496 32.2333 37.5326 32.2748 37.3303 32.3579C37.1426 32.4354 36.9725 32.5501 36.8303 32.6949C36.6875 32.8427 36.5763 33.0179 36.5033 33.2099C36.4229 33.4233 36.3832 33.6499 36.3863 33.8779C36.3841 34.1042 36.4238 34.329 36.5033 34.5409C36.5761 34.7365 36.685 34.9166 36.8243 35.0719C36.9624 35.223 37.1312 35.343 37.3193 35.4239C37.5243 35.5117 37.7453 35.5556 37.9683 35.5529ZM45.8963 36.0729C45.8416 36.1069 45.7566 36.1546 45.6413 36.2159C45.5021 36.2865 45.3568 36.3444 45.2073 36.3889C45.0105 36.4491 44.8101 36.4968 44.6073 36.5319C44.3596 36.5743 44.1086 36.5947 43.8573 36.5929C43.4947 36.5961 43.1342 36.5376 42.7913 36.4199C42.4701 36.3094 42.175 36.1341 41.9243 35.9049C41.6715 35.6707 41.4714 35.3854 41.3373 35.0679C41.1886 34.7073 41.1157 34.3199 41.1233 33.9299C41.1184 33.5474 41.1895 33.1678 41.3323 32.8129C41.4647 32.487 41.6628 32.1919 41.9143 31.9459C42.1665 31.702 42.465 31.5113 42.7923 31.3849C43.1454 31.249 43.521 31.1812 43.8993 31.1849C44.2177 31.1796 44.5348 31.2262 44.8383 31.3229C45.0882 31.4027 45.3216 31.527 45.5273 31.6899C45.7072 31.8341 45.8518 32.0174 45.9503 32.2259C46.0457 32.4303 46.0945 32.6534 46.0933 32.8789C46.0963 33.102 46.0509 33.3231 45.9603 33.5269C45.8573 33.7366 45.694 33.9108 45.4913 34.0269C45.2098 34.1877 44.9026 34.2983 44.5833 34.3539C44.1044 34.4419 43.6181 34.4824 43.1313 34.4749C42.9979 34.4749 42.8703 34.4733 42.7483 34.4699C42.6263 34.4666 42.4986 34.4616 42.3653 34.4549C42.3893 34.6218 42.4463 34.7822 42.533 34.9268C42.6197 35.0714 42.7344 35.1972 42.8703 35.2969C43.2276 35.5326 43.6521 35.6453 44.0793 35.6179C44.2435 35.619 44.4075 35.6052 44.5693 35.5769C44.7049 35.5535 44.8386 35.5201 44.9693 35.4769C45.0735 35.4422 45.1757 35.4014 45.2753 35.3549L45.4643 35.2629L45.8963 36.0729ZM42.3113 33.6549C42.4679 33.6616 42.6176 33.6649 42.7603 33.6649H43.1893C43.4935 33.6709 43.7977 33.6472 44.0973 33.5939C44.2861 33.5611 44.4686 33.499 44.6383 33.4099C44.7485 33.3546 44.8379 33.2651 44.8933 33.1549C44.9342 33.0602 44.955 32.9581 44.9543 32.8549C44.9602 32.7388 44.9344 32.6233 44.8796 32.5207C44.8248 32.4182 44.7431 32.3325 44.6433 32.2729C44.4101 32.1369 44.1431 32.0697 43.8733 32.0789C43.6452 32.0742 43.4189 32.1196 43.2103 32.2119C43.0275 32.2945 42.864 32.4144 42.7303 32.5639C42.6001 32.7124 42.4984 32.8836 42.4303 33.0689C42.3587 33.2564 42.3185 33.4544 42.3113 33.6549ZM46.5563 33.3549C46.551 33.0404 46.6156 32.7285 46.7453 32.4419C46.8667 32.1788 47.0442 31.9453 47.2653 31.7579C47.4968 31.565 47.7638 31.4192 48.0513 31.3289C48.3731 31.2274 48.7089 31.1775 49.0463 31.1809C49.3853 31.1777 49.7227 31.2276 50.0463 31.3289C50.3356 31.4184 50.6044 31.5642 50.8373 31.7579C51.0579 31.9446 51.2339 32.1783 51.3523 32.4419C51.4787 32.7294 51.5415 33.0409 51.5363 33.3549V36.4469H50.3763V33.6469C50.4029 33.2648 50.2823 32.887 50.0393 32.5909C49.9092 32.4641 49.7537 32.3662 49.5831 32.3038C49.4124 32.2414 49.2305 32.2159 49.0493 32.2289C48.8672 32.215 48.6843 32.2401 48.5127 32.3025C48.3411 32.3649 48.1848 32.4633 48.0543 32.5909C47.8141 32.8883 47.6955 33.2656 47.7223 33.6469V36.4469H46.5603L46.5563 33.3549ZM52.4563 35.1709C52.5372 35.2227 52.6225 35.2673 52.7113 35.3039C52.8596 35.3679 53.0111 35.4239 53.1653 35.4719C53.3674 35.535 53.5735 35.5845 53.7823 35.6199C54.0317 35.6622 54.2843 35.6826 54.5373 35.6809C54.8324 35.6906 55.1267 35.6438 55.4043 35.5429C55.5043 35.5112 55.5913 35.4478 55.6521 35.3623C55.7129 35.2768 55.7442 35.1738 55.7413 35.0689C55.7459 34.9843 55.7287 34.8999 55.6912 34.8239C55.6537 34.7478 55.5972 34.6828 55.5273 34.6349C55.2912 34.5087 55.0297 34.4372 54.7623 34.4259L53.9623 34.3339C53.7079 34.3102 53.4566 34.2606 53.2123 34.1859C53.0015 34.123 52.803 34.0246 52.6253 33.8949C52.4643 33.7752 52.3332 33.6198 52.2423 33.4409C52.1456 33.2389 52.0983 33.0168 52.1043 32.7929C52.1034 32.5806 52.147 32.3704 52.2323 32.1759C52.3225 31.9747 52.4597 31.7981 52.6323 31.6609C52.8458 31.4963 53.0903 31.3766 53.3513 31.3089C53.7023 31.2169 54.0644 31.1738 54.4273 31.1809C54.9863 31.1581 55.5449 31.2378 56.0753 31.4159C56.4666 31.5726 56.6623 31.7766 56.6623 32.0279C56.6639 32.1019 56.6481 32.1752 56.6163 32.2419C56.5885 32.2995 56.555 32.3541 56.5163 32.4049C56.4825 32.4488 56.4432 32.4882 56.3993 32.5219C56.3714 32.5448 56.3404 32.5637 56.3073 32.5779C56.2517 32.5299 56.1917 32.487 56.1283 32.4499C56.0104 32.3799 55.8858 32.322 55.7563 32.2769C55.5734 32.2118 55.3859 32.1607 55.1953 32.1239C54.9464 32.077 54.6935 32.0549 54.4403 32.0579C53.6509 32.0579 53.2563 32.2653 53.2563 32.6799C53.2537 32.7607 53.2732 32.8406 53.3127 32.9111C53.3521 32.9816 53.4101 33.0399 53.4803 33.0799C53.6791 33.187 53.8981 33.2514 54.1233 33.2689L55.1643 33.4019C55.6352 33.4425 56.0881 33.6022 56.4803 33.8659C56.6371 33.9872 56.7618 34.145 56.8436 34.3256C56.9253 34.5062 56.9616 34.7041 56.9493 34.9019C56.9557 35.14 56.9037 35.376 56.7979 35.5894C56.6921 35.8027 56.5357 35.9869 56.3423 36.1259C55.824 36.4642 55.2099 36.6252 54.5923 36.5849C54.2572 36.5875 53.9225 36.5601 53.5923 36.5029C53.3281 36.4571 53.0672 36.3939 52.8113 36.3139C52.6278 36.2574 52.4486 36.1876 52.2753 36.1049C52.1823 36.0624 52.0936 36.0111 52.0103 35.9519L52.4563 35.1709ZM62.1413 36.4309C62.0746 36.4443 61.9676 36.4596 61.8203 36.4769C61.6729 36.4943 61.5013 36.5113 61.3053 36.5279C61.1053 36.5453 60.8843 36.5606 60.6423 36.5739C60.4003 36.5873 60.1453 36.5939 59.8773 36.5939C59.4398 36.6042 59.0028 36.5578 58.5773 36.4559C58.2888 36.3881 58.0168 36.2633 57.7773 36.0889C57.5959 35.9539 57.457 35.7696 57.3773 35.5579C57.3064 35.3599 57.2702 35.1512 57.2703 34.9409C57.2654 34.69 57.3088 34.4404 57.3983 34.2059C57.4846 33.993 57.6296 33.8089 57.8163 33.6749C58.045 33.5172 58.3037 33.4079 58.5763 33.3539C58.9522 33.2763 59.3355 33.2404 59.7193 33.2469C59.9779 33.2469 60.2229 33.2556 60.4543 33.2729C60.6856 33.2903 60.8589 33.3056 60.9743 33.3189C60.9816 33.1152 60.9415 32.9126 60.8573 32.7269C60.7854 32.5778 60.6745 32.451 60.5363 32.3599C60.387 32.2663 60.2203 32.2037 60.0463 32.1759C59.8372 32.1404 59.6254 32.1233 59.4133 32.1249C59.0966 32.1142 58.7804 32.1592 58.4793 32.2579C58.315 32.3109 58.1589 32.3862 58.0153 32.4819C57.9528 32.4232 57.8965 32.3582 57.8473 32.2879C57.7742 32.1873 57.7366 32.0652 57.7403 31.9409C57.7413 31.8422 57.7678 31.7454 57.8173 31.6599C57.8826 31.5546 57.9762 31.4697 58.0873 31.4149C58.2508 31.3322 58.4263 31.2755 58.6073 31.2469C58.8806 31.2018 59.1573 31.1814 59.4343 31.1859C59.8042 31.182 60.1734 31.2213 60.5343 31.3029C60.8398 31.3702 61.1292 31.4966 61.3863 31.6749C61.6265 31.8476 61.8181 32.0794 61.9423 32.3479C62.0832 32.6655 62.1516 33.0106 62.1423 33.3579L62.1413 36.4309ZM60.9883 34.1659C60.9216 34.1526 60.7939 34.1323 60.6053 34.1049C60.3258 34.0727 60.0445 34.059 59.7633 34.0639C59.4137 34.0381 59.0639 34.1105 58.7533 34.2729C58.6476 34.3454 58.5629 34.4443 58.5074 34.5597C58.452 34.6752 58.4278 34.8032 58.4373 34.9309C58.4358 35.0466 58.4583 35.1613 58.5033 35.2679C58.5527 35.3754 58.6327 35.4658 58.7333 35.5279C58.8697 35.6097 59.0203 35.665 59.1773 35.6909C59.4083 35.7321 59.6427 35.7508 59.8773 35.7469C60.1261 35.7502 60.3749 35.7381 60.6223 35.7109C60.8063 35.6869 60.9286 35.6683 60.9893 35.6549L60.9883 34.1659ZM67.0883 29.4719C67.082 29.3964 67.0929 29.3204 67.1203 29.2497C67.1477 29.179 67.1907 29.1155 67.2463 29.0639C67.3772 28.9674 67.538 28.9203 67.7003 28.9309C67.8143 28.9297 67.9278 28.9452 68.0373 28.9769C68.1393 29.0076 68.2059 29.0296 68.2373 29.0429V33.6429C68.2471 34.0853 68.1763 34.5259 68.0283 34.9429C67.9036 35.2866 67.7069 35.5996 67.4513 35.8609C67.2062 36.106 66.9102 36.2941 66.5843 36.4119C66.234 36.5374 65.8643 36.5997 65.4923 36.5959C65.1138 36.6014 64.7379 36.5335 64.3853 36.3959C64.0608 36.2677 63.7645 36.0771 63.5133 35.8349C63.2646 35.5915 63.0682 35.2999 62.9363 34.9779C62.795 34.6349 62.7239 34.2669 62.7273 33.8959C62.7233 33.5241 62.7912 33.155 62.9273 32.8089C63.053 32.4899 63.2402 32.1987 63.4783 31.9519C63.7141 31.7078 63.9977 31.5148 64.3113 31.3849C64.6397 31.2495 64.992 31.1815 65.3473 31.1849C65.7077 31.1773 66.0646 31.2562 66.3883 31.4149C66.6593 31.5471 66.8982 31.7368 67.0883 31.9709V29.4719ZM67.0883 33.8899C67.0899 33.6669 67.0502 33.4455 66.9713 33.2369C66.8985 33.0414 66.7896 32.8613 66.6503 32.7059C66.5121 32.5548 66.3434 32.4348 66.1553 32.3539C65.9539 32.2672 65.7366 32.2236 65.5173 32.2259C65.2963 32.2226 65.0771 32.2662 64.8743 32.3539C64.6881 32.4359 64.5199 32.5538 64.3793 32.7009C64.2371 32.8519 64.1278 33.0306 64.0583 33.2259C63.9821 33.4386 63.9442 33.663 63.9463 33.8889C63.9439 34.1132 63.9818 34.3361 64.0583 34.5469C64.1287 34.7403 64.2379 34.9173 64.3793 35.0669C64.5199 35.214 64.6881 35.3319 64.8743 35.4139C65.0771 35.5017 65.2963 35.5453 65.5173 35.5419C65.736 35.5446 65.953 35.5031 66.1553 35.4199C66.3419 35.3432 66.5105 35.2284 66.6503 35.0829C66.7908 34.9327 66.8999 34.7559 66.9713 34.5629C67.052 34.3478 67.0924 34.1197 67.0903 33.8899H67.0883ZM71.5163 31.1899C71.8946 31.1857 72.2703 31.2536 72.6233 31.3899C72.9551 31.5184 73.2585 31.7107 73.5163 31.9559C73.7691 32.199 73.9705 32.4904 74.1083 32.8129C74.2532 33.1533 74.326 33.52 74.3223 33.8899C74.3262 34.256 74.2544 34.6189 74.1113 34.9559C73.9735 35.2784 73.7721 35.5699 73.5193 35.8129C73.2608 36.0586 72.9577 36.2524 72.6263 36.3839C72.2744 36.5249 71.8984 36.5959 71.5193 36.5929C71.1399 36.5963 70.7636 36.5257 70.4113 36.3849C70.0799 36.2534 69.7767 36.0596 69.5183 35.8139C69.2654 35.5709 69.0641 35.2794 68.9263 34.9569C68.7817 34.6199 68.7085 34.2566 68.7113 33.8899C68.7075 33.52 68.7804 33.1533 68.9253 32.8129C69.0631 32.4904 69.2644 32.199 69.5173 31.9559C69.7751 31.7107 70.0785 31.5184 70.4103 31.3899C70.7633 31.2521 71.1393 31.1828 71.5183 31.1859L71.5163 31.1899ZM71.5163 35.5669C71.7371 35.5689 71.956 35.5253 72.1593 35.4389C72.3513 35.3576 72.5236 35.2358 72.6643 35.0819C72.8052 34.9267 72.9161 34.7467 72.9913 34.5509C73.071 34.3408 73.1107 34.1176 73.1083 33.8929C73.1101 33.665 73.0705 33.4386 72.9913 33.2249C72.9186 33.0265 72.8075 32.8443 72.6643 32.6889C72.5224 32.5376 72.3504 32.4177 72.1593 32.3369C71.956 32.2505 71.7371 32.2069 71.5163 32.2089C71.2937 32.2061 71.073 32.2496 70.8683 32.3369C70.6792 32.4187 70.509 32.5385 70.3683 32.6889C70.2251 32.8444 70.114 33.0265 70.0413 33.2249C69.9621 33.4386 69.9224 33.665 69.9243 33.8929C69.9219 34.1176 69.9615 34.3408 70.0413 34.5509C70.1165 34.7466 70.2273 34.9267 70.3683 35.0819C70.5078 35.235 70.6782 35.3567 70.8683 35.4389C71.0739 35.5251 71.2953 35.5673 71.5183 35.5629L71.5163 35.5669Z" fill="#736C6B"/>
</svg>
